HIERARCHY
ROOT Hips
{
  OFFSET 33.533 98.4653 19.5067
  CHANNELS 6 Xposition Yposition Zposition Zrotation Xrotation Yrotation
  JOINT RightUpLeg
  {
    OFFSET -8.9458 -8.66707 0.101652
    CHANNELS 3 Zrotation Xrotation Yrotation
    JOINT RightLeg
    {
      OFFSET 0 -44.4227 1.3727
      CHANNELS 3 Zrotation Xrotation Yrotation
      JOINT RightFoot
      {
        OFFSET 0.253549 -42.0924 -1.46059
        CHANNELS 3 Zrotation Xrotation Yrotation
        JOINT RightToes
        {
          OFFSET 0.04 -4.41509 8.4991
          CHANNELS 3 Zrotation Xrotation Yrotation
          End Site
          {
            OFFSET -0.08 -0.137448 9.77979
          }
        }
      }
    }
  }
  JOINT Spine
  {
    OFFSET 0 11.8905 0
    CHANNELS 3 Zrotation Xrotation Yrotation
    JOINT Spine1
    {
      OFFSET 0 25.6574 0.127663
      CHANNELS 3 Zrotation Xrotation Yrotation
      JOINT HEad
      {
        OFFSET 0 8.73416 0.011341
        CHANNELS 3 Zrotation Xrotation Yrotation
        End Site
        {
          OFFSET -0.29 12.7742 2.51395
        }
      }
      JOINT LeftShoulder1
      {
        OFFSET 8.99 -0.362252 -0.22
        CHANNELS 3 Zrotation Xrotation Yrotation
        JOINT LeftArm
        {
          OFFSET 10.2827 -0.00338 0.322123
          CHANNELS 3 Zrotation Xrotation Yrotation
          JOINT LeftForeArm
          {
            OFFSET 32.7669 0.099144 -1.42434
            CHANNELS 3 Zrotation Xrotation Yrotation
            JOINT LeftHand
            {
              OFFSET 27.5643 0.085362 1.02216
              CHANNELS 3 Zrotation Xrotation Yrotation
              End Site
              {
                OFFSET 16.7443 -0.6 1.50291
              }
            }
          }
        }
      }
      JOINT RightShoulder
      {
        OFFSET -8.99 -0.362252 -0.22
        CHANNELS 3 Zrotation Xrotation Yrotation
        JOINT RightArm
        {
          OFFSET -10.2827 -0.00338 0.322123
          CHANNELS 3 Zrotation Xrotation Yrotation
          JOINT RightForeArm
          {
            OFFSET -32.8971 0.099144 -1.42434
            CHANNELS 3 Zrotation Xrotation Yrotation
            JOINT RightHand
            {
              OFFSET -27.4921 0.085362 1.02216
              CHANNELS 3 Zrotation Xrotation Yrotation
              End Site
              {
                OFFSET -16.6312 -0.6 1.50291
              }
            }
          }
        }
      }
    }
  }
  JOINT LeftUpLeg
  {
    OFFSET 8.9458 -8.66707 0.101652
    CHANNELS 3 Zrotation Xrotation Yrotation
    JOINT LeftLeg
    {
      OFFSET 0 -44.4227 1.3727
      CHANNELS 3 Zrotation Xrotation Yrotation
      JOINT LeftFoot
      {
        OFFSET -0.253549 -42.0924 -1.46059
        CHANNELS 3 Zrotation Xrotation Yrotation
        JOINT LeftToes
        {
          OFFSET -0.04 -4.41509 8.4991
          CHANNELS 3 Zrotation Xrotation Yrotation
          End Site
          {
            OFFSET 0.08 -0.047448 9.77979
          }
        }
      }
    }
  }
}
MOTION
Frames:	17
Frame Time:	0.0166667
33.533 98.4653 19.5067 10.0691 26.4959 -166.968 16.4337 9.45284 -36.0085 -13.3219 48.8643 7.29329 -13.5915 1.30423 0.0280322 0.0462048 0.000533403 0.662642 6.63248 26.5386 -5.9881 -0.0422589 0.0318701 0.042871 13.4761 -0.214958 -26.4606 -8.19987e-016 -1.98785e-016 -0 -68.5526 -4.27878 -99.1073 -23.8483 34.9638 -73.8356 20.8556 16.755 -5.51125 1.26154 7.54968 9.85445 111.396 -31.1118 94.9375 -55.659 33.9869 108.039 63.057 7.29155 -45.8422 23.685 1.93249 -34.756 -36.6916 -0.871648 73.3334 -0.335831 -3.02352 -0.0963863 2.14851e-009 1.56018e-007 -4.8713e-009 
34.3917 99.0902 19.9838 10.7945 30.7213 -161.505 16.602 5.1424 -44.1588 -23.0362 52.3336 26.5179 -6.94947 1.24667 0.0936733 0.0462048 0.000533403 0.662642 8.85136 30.9974 -6.83196 0.0161288 -0.02461 -0.0489004 16.0404 -2.17613 -30.6292 -4.96962e-017 -5.96354e-016 3.18055e-015 -55.2637 5.19233 -101.21 -14.587 24.977 -78.8291 19.2044 16.984 -4.74635 4.89664 8.84256 16.2292 99.8992 -42.5934 88.466 -55.9252 31.3197 94.3052 65.2451 7.94043 -46.0608 26.7007 2.08715 -38.1798 -37.3837 0.857067 73.3472 -0.63358 -2.98514 -0.180493 2.14851e-009 1.56018e-007 -4.87132e-009 
35.3166 99.6615 20.4772 11.1124 34.5724 -156.588 15.0049 -0.0467783 -51.493 -34.1135 54.6357 45.3918 -5.04772 1.94415 0.17456 0.0462048 0.000533403 0.662642 11.0872 34.264 -7.40729 0.0204688 -0.0166 -0.0479405 18.3931 -3.60329 -34.4634 -2.03754e-015 -5.96354e-016 -3.18055e-015 -44.9667 11.6256 -104.657 -9.78329 17.4054 -81.0254 17.4781 17.2995 -4.42836 8.49577 8.08258 11.584 83.2866 -41.1965 72.9679 -54.4734 29.4157 79.2627 49.8151 14.4162 -35.0891 29.5039 1.71151 -39.8872 -38.1864 3.27332 74.653 -0.976092 -3.03341 -0.309449 2.14851e-009 1.56018e-007 -4.87132e-009 
36.2768 100.196 20.9323 11.1483 38.0505 -152.14 11.2791 -5.52979 -57.9582 -45.6022 55.4905 62.4041 -0.147808 1.99719 0.162772 0.0462048 0.000533403 0.662642 13.1563 36.488 -7.73887 0.0224836 -0.00812005 -0.0438826 20.5706 -4.48419 -37.912 -2.842e-015 1.25483e-015 3.18055e-015 -36.991 16.2877 -108.151 -7.19348 12.1742 -82.021 15.9711 17.6955 -4.25513 11.9147 7.61141 7.85344 68.1845 -36.6631 58.8569 -50.9164 27.6939 63.2048 62.9916 9.64306 -40.6755 32.0452 1.12717 -40.0537 -38.7056 6.21227 76.8836 -1.35051 -3.07865 -0.472744 2.14851e-009 1.56018e-007 -4.87131e-009 
37.2043 100.652 21.3092 11.0101 41.1666 -148.107 5.82408 -11.1014 -63.9978 -56.2288 55.3595 76.2686 3.34971 2.32496 0.288355 0.0462048 0.000533403 0.662642 14.9864 37.8415 -7.86628 0.0240746 0.00109995 -0.0388648 22.6072 -4.9238 -40.981 -7.05686e-015 1.59028e-015 -0 -31.0071 19.7213 -111.285 -6.13473 8.81188 -82.1614 14.7772 18.0313 -4.39937 15.448 7.44731 4.87616 55.8503 -29.2893 46.9586 -45.304 25.0172 46.9652 44.7217 16.7702 -24.3956 34.3832 0.571444 -39.9273 -38.9048 8.64507 80.5124 -1.57808 -3.215 -0.6259 2.14851e-009 1.56018e-007 -4.87131e-009 
37.5245 100.837 19.8809 10.7843 43.9461 -144.45 1.28378 -16.3586 -69.7304 -58.5889 53.1362 79.9279 6.28756 5.69427 -0.047528 0.0462048 0.000533403 0.662642 16.545 38.4556 -7.77978 0.0252759 0.00672996 -0.0337368 24.5588 -4.99317 -43.7362 -1.98785e-016 -4.37326e-015 3.18055e-015 -26.5446 22.7928 -113.49 -5.73424 7.13862 -82.2102 13.9127 18.3072 -4.38183 19.2866 7.5909 2.36818 48.7691 -23.8164 40.2933 -38.0141 24.5026 32.841 54.525 6.43517 -35.5918 37.4589 0.151054 -39.923 -40.8037 11.2377 85.7393 -2.97984 -4.91476 -1.17413 2.14851e-009 1.56018e-007 -4.87131e-009 
37.6944 100.997 18.4065 10.5185 46.4154 -141.13 -3.43412 -21.6134 -75.1388 -60.6669 51.9444 81.2686 -5.67502 8.17426 0.711595 0.0462048 0.000533403 0.662642 17.8903 38.4474 -7.53849 0.0261274 0.01159 -0.0322186 26.4282 -4.75261 -46.2213 -4.37326e-015 -1.59028e-015 3.18055e-015 -26.8996 26.5511 -110.528 -5.93616 10.4227 -84.6285 13.4429 18.5122 -4.35049 32.3934 9.80925 5.83731 33.1306 -26.1547 31.0173 -28.833 24.2697 19.9669 32.6147 16.1539 -23.1747 40.2462 0.0241265 -39.7372 -41.6966 13.6063 89.7598 -4.71165 -5.95709 -1.70756 2.14852e-009 1.56018e-007 -4.87131e-009 
37.8067 100.928 16.7283 10.2237 48.5882 -138.101 -9.42004 -25.7055 -79.2185 -60.4416 51.3649 78.58 -6.69227 10.0278 0.019881 0.0462048 0.000533403 0.662642 19.0586 37.9459 -7.18272 0.0266681 0.0208499 -0.0280804 28.2017 -4.30532 -48.4922 3.97569e-015 -1.59028e-015 3.18055e-015 -30.7482 30.1054 -103.917 -6.37904 16.7303 -88.1559 13.5702 18.7368 -4.27278 35.2715 9.74767 2.98337 34.4282 -25.8366 26.9166 -22.2279 24.4915 12.1053 30.5586 16.8649 -21.4998 43.0221 -0.179508 -39.4112 -42.4847 15.8247 92.8879 -6.65226 -6.76955 -2.33189 2.14851e-009 1.56018e-007 -4.87131e-009 
37.8332 100.769 14.8104 9.88584 50.4738 -135.298 -15.0099 -29.1962 -82.1819 -58.5616 51.5597 73.9156 -15.1786 10.5566 0.363277 0.0462048 0.000533403 0.662642 19.9513 37.0303 -6.7483 0.0269302 0.02496 -0.0240916 29.9241 -3.67202 -50.5503 -1.59028e-015 -1.59028e-015 -3.18055e-015 -37.6421 32.0443 -95.0342 -7.41745 25.0176 -91.4636 14.3363 19.1003 -4.63929 38.1058 9.60823 0.117019 35.3071 -26.1112 24.4143 -18.6141 24.4601 7.9733 16.5891 19.9183 -13.3488 45.6359 -0.268065 -38.9802 -42.7593 17.7915 95.0127 -8.63737 -7.20035 -2.89273 2.14851e-009 1.56018e-007 -4.87131e-009 
37.8192 100.581 12.6238 9.50204 52.0923 -132.68 -20.5178 -31.7914 -83.3862 -52.7844 52.0961 66.1518 -21.1178 10.6566 -0.18502 0.0462048 0.000533403 0.662642 20.4183 35.7797 -6.2565 0.0269539 0.0269493 -0.0221702 31.6693 -2.86898 -52.3773 1.85384e-030 1.11319e-014 -9.54166e-015 -41.9971 33.5045 -89.2388 -8.11266 30.3867 -92.6831 15.4831 19.4241 -5.08151 40.5066 9.34242 -2.84562 36.0605 -26.652 22.7006 -17.0201 24.4651 6.08005 18.448 19.0805 -14.2408 48.1791 -0.321945 -38.4739 -42.7039 19.6109 96.2378 -10.6791 -7.34692 -3.38394 2.14852e-009 1.56018e-007 -4.87131e-009 
37.7466 100.456 10.297 9.09794 53.4805 -130.241 -25.5423 -33.7494 -82.8221 -43.0405 52.2332 56.4305 -27.9981 10.3118 -0.58428 0.0462048 0.000533403 0.662642 20.3788 34.2795 -5.72108 0.0267767 0.0284718 -0.0211337 33.4879 -1.91412 -53.9656 -1.59028e-015 3.18055e-015 -3.18055e-015 -44.742 34.6901 -85.2596 -8.91071 33.6569 -92.7759 16.7401 19.591 -5.51212 42.5207 9.04704 -5.69435 36.6661 -27.4273 21.2629 -16.5658 24.5719 5.54923 12.5884 19.7482 -10.7292 50.6423 -0.338963 -37.9012 -42.31 21.3033 96.6327 -12.7131 -7.29022 -3.77093 2.14851e-009 1.56018e-007 -4.87132e-009 
37.6489 100.478 7.76713 8.69517 54.6853 -127.971 -31.1343 -35.3675 -80.8974 -31.743 51.6916 46.3816 -27.5462 9.67054 -2.37636 0.0462048 0.000533403 0.662642 19.7869 32.6004 -5.16876 0.0264353 0.0295668 -0.0205975 35.4073 -0.821157 -55.3123 -4.77083e-015 3.18055e-015 -3.18055e-015 -50.7157 33.2515 -81.6162 -13.5511 38.9564 -89.3008 37.1906 25.4885 -6.63004 44.1967 8.66836 -8.14822 36.8108 -32.7006 19.4994 -15.5545 28.5623 7.07083 15.1747 18.8272 -11.4053 53.1065 -0.332842 -37.2839 -41.6389 22.8739 96.2689 -14.7289 -7.1193 -4.05427 2.14851e-009 1.56018e-007 -4.87132e-009 
37.5443 100.533 5.00175 8.30958 55.7658 -125.867 -37.3472 -37.0509 -78.2768 -21.1889 50.4381 37.1317 -22.4795 7.92792 -4.25249 0.0462048 0.000533403 0.662642 18.6276 30.7944 -4.58892 0.0259668 0.0302739 -0.0201766 36.1844 0.330907 -55.6088 3.53113e-031 -6.36111e-015 3.18055e-015 -58.3928 30.7171 -77.9865 -16.4644 41.1757 -86.2252 19.2841 17.8385 -5.27059 45.5414 8.33429 -10.1641 37.1768 -36.2658 17.7802 -18.7768 26.6687 9.5805 16.6009 22.6504 -10.3285 55.7638 -0.437195 -36.6264 -41.0984 24.4488 95.3932 -16.8486 -7.0432 -4.36526 2.14851e-009 1.56018e-007 -4.87131e-009 
37.4723 100.439 2.07506 7.94825 56.7572 -123.938 -43.8294 -38.9366 -75.4126 -12.4533 48.3302 28.919 -15.4902 5.50091 -5.13476 0.0462048 0.000533403 0.662642 16.9951 28.925 -4.02722 0.0254078 0.0306325 -0.0194862 35.8672 1.66626 -55.0514 0 0 -3.18055e-015 -62.7679 29.4828 -74.6278 -17.9523 43.0888 -84.2953 44.9188 24.325 -4.31769 37.8918 0.821304 -9.1928 40.178 -33.0284 7.26605 -20.6719 25.5759 11.4379 21.3631 23.7743 -11.6101 58.6843 -0.723848 -35.9156 -40.8675 26.0753 94.1859 -19.09 -7.10814 -4.77577 2.14851e-009 1.56018e-007 -4.87131e-009 
37.4732 100.119 -0.951938 7.60566 57.6412 -122.203 -49.9578 -41.0801 -72.5078 -6.53657 45.3411 22.0517 -7.92325 3.1582 -4.65698 0.0462048 0.000533403 0.662642 14.9773 27.0553 -3.49546 0.0247954 0.030682 -0.0185006 34.4898 3.32901 -53.7871 3.18055e-015 -3.18055e-015 -3.18055e-015 -65.0375 29.1271 -71.2704 -18.474 44.7765 -83.2734 36.4002 13.8584 -4.55189 40.2893 2.05303 -11.1426 40.2382 -35.3881 6.868 -21.5276 25.025 12.5414 19.4228 6.70198 -11.1662 61.747 -1.1415 -35.1401 -40.8051 27.6501 92.6857 -21.3265 -7.19851 -5.22996 2.14851e-009 1.56018e-007 -4.87131e-009 
37.592 99.6198 -4.06836 7.29129 58.3683 -120.703 -53.5231 -43.5145 -68.4337 -2.23389 41.8441 14.9868 -4.3501 2.51016 -2.87726 0.0462048 0.000533403 0.662642 12.6434 25.224 -2.99747 0.024166 0.0304621 -0.0162518 33.6145 5.08345 -52.4761 3.53113e-031 6.36111e-015 -3.18055e-015 -65.7987 29.0104 -68.1672 -18.794 45.4008 -82.575 38.4177 20.854 -2.19319 42.7626 3.41381 -12.84 40.5106 -37.3132 6.6834 -21.6988 24.7715 13.0723 23.8072 22.0117 -12.4039 64.7929 -1.57564 -34.3079 -40.6455 29.0016 90.8419 -23.4127 -7.11856 -5.59477 2.14851e-009 1.56018e-007 -4.87132e-009 
37.7322 99.0885 -7.22742 7.04019 58.8922 -119.499 -52.9657 -45.6968 -62.1681 0.543961 38.5109 7.49683 -5.72313 3.76065 -1.41677 0.0462048 0.000533403 0.662642 10.0861 23.4354 -2.53133 0.0235571 0.0300121 -0.0134292 33.1406 6.92181 -51.1434 3.18055e-015 -3.18055e-015 6.36111e-015 -65.5166 28.9708 -65.2205 -18.9694 45.3959 -82.2309 33.511 15.0281 -2.43716 45.4476 4.85958 -14.3857 40.8885 -38.8755 6.72736 -21.4901 24.6915 13.2247 22.4404 12.0871 -12.7053 67.6158 -1.78189 -33.4691 -40.0446 29.9256 88.5593 -25.2674 -6.73741 -5.71004 2.14852e-009 1.56018e-007 -4.87131e-009 
